#N canvas 1807 1031 1920 997 12;
#X declare -path ./lib;
#X declare -lib zexy;
#X declare -path ./samples/samples0;
#X declare -path ./samples/samples1;
#X declare -path ./samples/samples2;
#X declare -path ./samples/samples3;
#X declare -path ./samples/samples4;
#X declare -path ./samples/samples5;
#N canvas 104 104 450 300 declare 0;
#X obj 15 10 declare -path ./lib;
#X obj 14 220 declare -lib zexy;
#X obj 15 40 declare -path ./samples/samples0;
#X obj 15 70 declare -path ./samples/samples1;
#X obj 14 100 declare -path ./samples/samples2;
#X obj 14 130 declare -path ./samples/samples3;
#X obj 14 160 declare -path ./samples/samples4;
#X obj 14 190 declare -path ./samples/samples5;
#X restore 83 9 pd declare;
#N canvas 458 1021 1920 997 loadsamples 0;
#X obj 111 408 f;
#X obj 150 408 + 1;
#X obj 58 351 t a b, f 8;
#X obj 58 116 t b 0 b;
#X obj 58 440 pack s f;
#X floatatom 140 327 5 0 0 0 - - - 0;
#X floatatom 181 339 5 0 0 0 - - - 0;
#X msg 58 472 \; samplefile-name-\$2 \$1;
#X obj 58 75 inlet;
#X obj 278 116 t b 0 b;
#X obj 278 75 inlet;
#X obj 498 116 t b 0 b;
#X obj 498 75 inlet;
#X floatatom 129 371 5 0 0 0 - - - 0;
#X obj 58 300 else/dir -ext .wav;
#X obj 58 237 bng 15 250 50 0 empty empty empty 17 7 0 10 #fcfcfc #000000 #000000;
#X text 45 4 2 Cargar samples de la carpeta "samples \, samples1 \, samples2;
#X obj 239 486 outlet;
#X obj 295 487 outlet;
#X obj 718 116 t b 0 b;
#X obj 718 75 inlet;
#X obj 938 116 t b 0 b;
#X obj 938 75 inlet;
#X msg 544 169 reset \, open samples/samples2;
#X msg 764 169 reset \, open samples/samples3;
#X msg 984 169 reset \, open samples/samples4;
#X msg 324 169 reset \, open samples/samples1;
#X msg 104 169 reset \, open samples/samples0;
#X obj 1158 116 t b 0 b;
#X obj 1158 75 inlet;
#X msg 1204 169 reset \, open samples/samples5;
#X connect 0 0 1 0;
#X connect 0 0 4 1;
#X connect 1 0 0 1;
#X connect 2 0 4 0;
#X connect 2 1 0 0;
#X connect 3 0 15 0;
#X connect 3 1 13 0;
#X connect 3 2 27 0;
#X connect 4 0 7 0;
#X connect 5 0 17 0;
#X connect 6 0 18 0;
#X connect 8 0 3 0;
#X connect 9 0 15 0;
#X connect 9 1 13 0;
#X connect 9 2 26 0;
#X connect 10 0 9 0;
#X connect 11 0 15 0;
#X connect 11 1 13 0;
#X connect 11 2 23 0;
#X connect 12 0 11 0;
#X connect 13 0 0 1;
#X connect 14 0 2 0;
#X connect 14 2 5 0;
#X connect 14 3 6 0;
#X connect 15 0 14 0;
#X connect 19 0 15 0;
#X connect 19 1 13 0;
#X connect 19 2 24 0;
#X connect 20 0 19 0;
#X connect 21 0 15 0;
#X connect 21 1 13 0;
#X connect 21 2 25 0;
#X connect 22 0 21 0;
#X connect 23 0 14 0;
#X connect 24 0 14 0;
#X connect 25 0 14 0;
#X connect 26 0 14 0;
#X connect 27 0 14 0;
#X connect 28 0 15 0;
#X connect 28 1 13 0;
#X connect 28 2 30 0;
#X connect 29 0 28 0;
#X connect 30 0 14 0;
#X restore 223 46 pd loadsamples;
#X f 48;
#X obj 223 9 bng 25 250 50 0 empty empty samples0 -3 -8 1 14 #00fc04 #000000 #000000;
#X obj 223 68 else/display 4;
#X obj 556 68 else/display 2;
#X obj 289 9 bng 25 250 50 0 empty empty samples1 -3 -8 1 14 #00fc04 #000000 #000000;
#X obj 356 9 bng 25 250 50 0 empty empty samples2 -3 -8 1 14 #00fc04 #000000 #000000;
#X obj 422 9 bng 25 250 50 0 empty empty samples3 -3 -8 1 14 #00fc04 #000000 #000000;
#X obj 489 9 bng 25 250 50 0 empty empty samples4 -3 -8 1 14 #00fc04 #000000 #000000;
#X obj 83 106 main-output-2;
#N canvas 0 23 1440 855 audio 0;
#X obj 311 176 throw~ a-mainoutput-1;
#X obj 126 177 throw~ a-mainoutput-0;
#X obj 126 97 catch~ sample_out-L;
#X obj 311 96 catch~ sample_out-R;
#X connect 2 0 1 0;
#X connect 3 0 0 0;
#X restore 83 49 pd audio;
#X obj 223 446 liveclock;
#N canvas 214 1019 1920 997 normalize_samples 0;
#X obj 108 70 f;
#X obj 142 70 + 1;
#X floatatom 108 102 5 0 0 0 - - - 0;
#X msg 126 43 0;
#X obj 126 -35 t b b b b b b b b b, f 40;
#X obj 126 -65 inlet;
#X obj 160 23 node;
#X msg 108 126 \; \$1-normalize_instance bang;
#X connect 0 0 1 0;
#X connect 0 0 2 0;
#X connect 1 0 0 1;
#X connect 2 0 7 0;
#X connect 3 0 0 1;
#X connect 4 0 3 0;
#X connect 4 1 6 0;
#X connect 4 2 6 0;
#X connect 4 3 6 0;
#X connect 4 4 6 0;
#X connect 4 5 6 0;
#X connect 4 6 6 0;
#X connect 4 7 6 0;
#X connect 4 8 6 0;
#X connect 5 0 4 0;
#X connect 6 0 0 0;
#X restore 1180 46 pd normalize_samples;
#X obj 1180 9 bng 25 250 50 0 empty empty normalize\ all\ samples -3 -8 1 14 #ffe3c6 #000000 #000000;
#X obj 1340 9 bng 25 250 50 0 empty empty reset\ all\ sample\ players -3 -8 1 14 #c6feff #000000 #000000;
#N canvas 643 1027 1920 997 reset_samples 0;
#X obj 108 70 f;
#X obj 142 70 + 1;
#X floatatom 108 102 5 0 0 0 - - - 0;
#X msg 126 43 0;
#X obj 126 -35 t b b b b b b b b b, f 40;
#X obj 126 -65 inlet;
#X obj 160 23 node;
#X msg 108 126 \; \$1-reset_instance bang;
#X connect 0 0 1 0;
#X connect 0 0 2 0;
#X connect 1 0 0 1;
#X connect 2 0 7 0;
#X connect 3 0 0 1;
#X connect 4 0 3 0;
#X connect 4 1 6 0;
#X connect 4 2 6 0;
#X connect 4 3 6 0;
#X connect 4 4 6 0;
#X connect 4 5 6 0;
#X connect 4 6 6 0;
#X connect 4 7 6 0;
#X connect 4 8 6 0;
#X connect 5 0 4 0;
#X connect 6 0 0 0;
#X restore 1340 46 pd reset_samples;
#X obj 223 106 sample_player 0;
#X obj 383 106 sample_player 1;
#X obj 543 106 sample_player 2;
#X obj 703 106 sample_player 3;
#X obj 863 106 sample_player 4;
#X obj 1023 106 sample_player 5;
#X obj 1183 106 sample_player 6;
#X obj 1343 106 sample_player 7;
#X obj 703 -28 multiple_play;
#X obj 556 9 bng 25 250 50 0 empty empty samples5 -3 -8 1 14 #00fc04 #000000 #000000;
#X connect 1 0 3 0;
#X connect 1 1 4 0;
#X connect 2 0 1 0;
#X connect 5 0 1 1;
#X connect 6 0 1 2;
#X connect 7 0 1 3;
#X connect 8 0 1 4;
#X connect 13 0 12 0;
#X connect 14 0 15 0;
#X connect 25 0 1 5;
