#N canvas 0 23 1440 855 10;
#X floatatom 378 661 5 0 0 0 - - centesimas;
#X obj 322 472 f;
#X msg 210 419 0;
#X msg 342 408 stop;
#X obj 349 472 + 1;
#X floatatom 251 673 5 0 0 0 - - segundos;
#X obj 251 607 f;
#X obj 278 607 + 1;
#X floatatom 142 524 5 0 0 0 - - -;
#X obj 142 592 f;
#X obj 169 592 + 1;
#X floatatom 142 662 5 0 0 0 - - minutos;
#X obj 322 373 sel 1 0;
#X obj 105 105 tgl 20 0 c-reloj-switch c-reloj-switch PLAY/PAUSE(STOP)
30 10 0 12 -204786 -1 -1 0 1;
#X obj 322 339 r c-reloj-switch;
#X obj 401 107 nbx 2 30 -1e+37 1e+37 0 0 empty hora empty 0 -8 0 30
-262144 -1 -1 0 256;
#X obj 476 107 nbx 2 30 -1e+37 1e+37 0 0 empty minutos empty 0 -8 0
30 -262144 -1 -1 0 256;
#X obj 551 107 nbx 2 30 -1e+37 1e+37 0 0 empty segundos empty 0 -8
0 30 -262144 -1 -1 0 256;
#X text 548 138 SEGUNDOS;
#X text 474 138 MINUTOS;
#X text 400 139 HORAS;
#X obj 117 13 key;
#X obj 117 34 sel 32;
#X obj 254 105 tgl 20 0 empty c-reloj-lock LOCK_BAR_SPACE 32 14 0 12
-257985 -1 -1 0 1;
#X obj 117 55 spigot;
#X obj 626 117 nbx 3 20 -1e+37 1e+37 0 0 empty centesimas empty 0 -8
0 20 -262144 -1 -1 0 256;
#X obj 322 440 metro 10;
#X floatatom 48 523 5 0 0 0 - - -;
#X obj 48 591 f;
#X floatatom 47 661 5 0 0 0 - - hora;
#X obj 77 591 + 1;
#X text 622 138 CENTESIMAS;
#X obj 142 503 % 6000;
#X obj 48 502 % 360000;
#X obj 48 543 select 259999;
#X obj 142 544 select 5999;
#X floatatom 323 525 5 0 0 0 - - -;
#X obj 322 505 % 100;
#X obj 251 573 select 99;
#X obj 251 650 % 60;
#X obj 142 639 % 60;
#X floatatom 251 628 5 0 0 0 - - -;
#X floatatom 142 613 5 0 0 0 - - -;
#X obj 117 76 f;
#X obj 150 76 + 1;
#X msg 63 98 0;
#X obj 198 30 sel 1 2;
#X obj 385 6 loadbang;
#X obj 196 4 f;
#X obj 63 77 del 200;
#X obj 210 364 r c-reloj-reset;
#X obj 210 388 sel 1;
#X obj 106 129 bng 25 250 50 0 empty empty empty 17 7 0 10 -262144
-1 -1;
#X msg 217 51 \; c-reloj-switch 0 \; c-reloj-reset 1 \; c-reloj-lock
0 \;;
#X obj 269 14 == 0;
#X obj 254 128 bng 20 250 50 0 empty empty empty 17 7 0 10 -262144
-1 -1;
#X obj 86 287 select 0;
#X connect 1 0 4 0;
#X connect 1 0 32 0;
#X connect 1 0 33 0;
#X connect 1 0 37 0;
#X connect 2 0 0 0;
#X connect 2 0 6 0;
#X connect 2 0 9 0;
#X connect 2 0 8 0;
#X connect 2 0 4 0;
#X connect 2 0 27 0;
#X connect 2 0 28 0;
#X connect 3 0 26 0;
#X connect 4 0 1 1;
#X connect 6 0 7 0;
#X connect 6 0 41 0;
#X connect 7 0 6 1;
#X connect 8 0 35 0;
#X connect 9 0 10 0;
#X connect 9 0 42 0;
#X connect 10 0 9 1;
#X connect 12 0 26 0;
#X connect 12 1 3 0;
#X connect 13 0 56 0;
#X connect 14 0 12 0;
#X connect 21 0 22 0;
#X connect 22 0 24 0;
#X connect 23 0 54 0;
#X connect 24 0 43 0;
#X connect 24 0 49 0;
#X connect 26 0 1 0;
#X connect 27 0 34 0;
#X connect 28 0 29 0;
#X connect 28 0 30 0;
#X connect 30 0 28 1;
#X connect 32 0 8 0;
#X connect 33 0 27 0;
#X connect 34 0 28 0;
#X connect 35 0 9 0;
#X connect 36 0 38 0;
#X connect 36 0 0 0;
#X connect 37 0 36 0;
#X connect 38 0 6 0;
#X connect 39 0 5 0;
#X connect 39 0 52 0;
#X connect 40 0 11 0;
#X connect 41 0 39 0;
#X connect 42 0 40 0;
#X connect 43 0 44 0;
#X connect 44 0 43 1;
#X connect 44 0 48 1;
#X connect 45 0 43 1;
#X connect 46 0 13 0;
#X connect 46 1 53 0;
#X connect 47 0 53 0;
#X connect 48 0 46 0;
#X connect 49 0 45 0;
#X connect 49 0 48 0;
#X connect 50 0 51 0;
#X connect 51 0 2 0;
#X connect 54 0 24 1;
#X connect 55 0 53 0;
#X connect 56 0 55 0;
#X coords 0 -1 1 1 600 60 2 100 100;
