#N canvas 0 23 1440 855 10;
#X obj 484 361 *~;
#X obj 564 365 *~;
#X floatatom 500 255 5 0 0 0 - - - 0;
#X obj 429 164 f;
#X obj 500 226 spigot;
#X msg 456 226 0;
#X obj 456 195 sel 0 1;
#X obj 429 139 t b f;
#X obj 429 98 r c-mainoutput-switch;
#X text 25 60 MAIN OUTPUT (STEREO);
#X obj 500 304 line~;
#X obj 500 282 pack f 30;
#X obj 386 120 r c-mainoutput-volume;
#X obj 653 354 r c-mainoutput-panning;
#X msg 1081 455 stop;
#X obj 684 663 writesf~ 2;
#X obj 897 240 r c-mainoutput-rec;
#X obj 924 271 sel 1 0;
#X obj 183 373 vu 10 80 empty empty -1 -8 0 10 #404040 #000000 1 0;
#X obj 114 371 vu 10 80 empty empty -1 -8 0 10 #404040 #000000 1 0;
#X obj 499 544 *~;
#X obj 568 554 *~;
#X obj 566 520 z~ 64;
#X obj 536 656 dac~;
#X text 605 522 pequeñisimo delay de 64 samples;
#X floatatom 113 350 5 0 0 0 - - - 0;
#X floatatom 183 352 5 0 0 0 - - - 0;
#X obj 499 580 hip~ 1;
#X obj 569 582 hip~ 1;
#X obj 207 636 env~;
#X obj 421 639 env~;
#X text 248 635 antes colocaba 128;
#X obj 207 657 - 96;
#X obj 421 660 - 96;
#X obj 342 314 catch~ a-mainoutput-0;
#X obj 581 243 catch~ a-mainoutput-1;
#X obj 276 49 vsl 30 85 0 1 0 0 c-mainoutput-volume c-mainoutput-volume Volume 0 -9 0 10 #fcfcc4 #000000 #000000 0 1;
#X obj 492 419 intensitypanning-2;
#X text 31 14 INPUTS: c-mainoutput-volume c-mainoutput-panning a-mainoutput-0 a-mainoutput-1;
#X obj 113 209 hsl 78 30 -1 1 0 0 c-mainoutput-panning c-mainoutput-panning panning_(-1:1) -2 -8 0 8 #fcfcc4 #000000 #000000 0 1;
#X obj 168 109 tgl 25 1 empty empty mute 30 10 0 10 #fcfcfc #000000 #000000 0 1;
#X text 624 433 LIMITADOR GLOBAL USANDO ZEXY;
#X obj 352 12 loadbang;
#X obj 195 209 bng 30 250 50 0 empty empty c 11 5 0 10 #fcfcc4 #b8b8b8 #b8b8b8;
#X obj 1031 241 r c-mainoutput-file;
#X obj 944 346 symbol;
#X msg 946 394 open -bytes 3 \$1 \, start;
#X obj 111 110 tgl 23 0 c-mainoutput-dspswitch c-mainoutput-dspswitch DSP 30 10 0 10 #00fc04 #0c4410 #000000 0 1;
#X msg 29 133 \; pd dsp \$1;
#X msg 352 39 \; c-mainoutput-panning 0 \; c-mainoutput-dspswitch 1 \; c-mainoutput-volume 1 \;;
#X msg 322 257 \; c-mainoutput-switch \$1;
#X obj 322 236 == 0;
#X msg 243 551 \; c-mainoutput-panning 0 \;;
#X obj 499 521 z~ 64;
#X obj 537 481 limiter~ 50 1;
#X obj 113 159 hsl 110 30 0 127 0 0 c-mainoutput-volume c-mainoutput-volume volumen -2 -8 0 10 #fcfcc4 #000000 #000000 0 1;
#X obj 198 72 loadbang;
#X obj 113 255 hsl 110 30 50 1500 0 0 delay1 empty delay_time -2 -8 0 10 #fcfcc4 #000000 #000000 0 1;
#X obj 113 305 hsl 110 30 50 10000 0 0 delay2 empty delay_time -2 -8 0 10 #fcfcc4 #000000 #000000 0 1;
#X obj 29 73 loadbang;
#X msg 29 94 1;
#X connect 0 0 37 0;
#X connect 1 0 37 1;
#X connect 2 0 11 0;
#X connect 3 0 4 0;
#X connect 4 0 2 0;
#X connect 5 0 2 0;
#X connect 6 0 5 0;
#X connect 6 1 3 0;
#X connect 7 0 3 0;
#X connect 7 1 4 1;
#X connect 7 1 6 0;
#X connect 8 0 7 0;
#X connect 10 0 0 1;
#X connect 10 0 1 1;
#X connect 11 0 10 0;
#X connect 12 0 3 0;
#X connect 13 0 37 2;
#X connect 14 0 15 0;
#X connect 16 0 17 0;
#X connect 17 0 45 0;
#X connect 17 1 14 0;
#X connect 20 0 27 0;
#X connect 21 0 28 0;
#X connect 22 0 21 1;
#X connect 25 0 19 0;
#X connect 26 0 18 0;
#X connect 27 0 15 0;
#X connect 27 0 29 0;
#X connect 27 0 23 0;
#X connect 28 0 15 1;
#X connect 28 0 30 0;
#X connect 28 0 23 1;
#X connect 29 0 32 0;
#X connect 30 0 33 0;
#X connect 32 0 25 0;
#X connect 33 0 26 0;
#X connect 34 0 0 0;
#X connect 35 0 1 0;
#X connect 36 0 3 0;
#X connect 37 0 53 0;
#X connect 37 0 54 0;
#X connect 37 1 22 0;
#X connect 37 1 54 1;
#X connect 40 0 51 0;
#X connect 42 0 49 0;
#X connect 43 0 52 0;
#X connect 44 0 45 1;
#X connect 45 0 46 0;
#X connect 46 0 15 0;
#X connect 47 0 48 0;
#X connect 51 0 50 0;
#X connect 53 0 20 0;
#X connect 54 0 21 0;
#X connect 54 0 20 1;
#X connect 55 0 3 0;
#X connect 56 0 43 0;
#X connect 59 0 60 0;
#X connect 60 0 48 0;
#X coords 0 -1 1 1 140 365 2 100 100;
