#N canvas 960 1024 1920 997 12;
#X obj 112 176 tgl 35 0 empty empty empty 0 -10 0 12 #fcfcfc #000000 #000000 0 1;
#X obj 163 176 tgl 35 0 empty empty empty 0 -10 0 12 #fcfcfc #000000 #000000 0 1;
#X obj 213 176 tgl 35 0 empty empty empty 0 -10 0 12 #fcfcfc #000000 #000000 0 1;
#X obj 263 176 tgl 35 0 empty empty empty 0 -10 0 12 #fcfcfc #000000 #000000 0 1;
#X obj 314 176 tgl 35 0 empty empty empty 0 -10 0 12 #fcfcfc #000000 #000000 0 1;
#X obj 364 176 tgl 35 0 empty empty empty 0 -10 0 12 #fcfcfc #000000 #000000 0 1;
#X obj 415 176 tgl 35 0 empty empty empty 0 -10 0 12 #fcfcfc #000000 #000000 0 1;
#X obj 466 176 tgl 35 0 empty empty empty 0 -10 0 12 #fcfcfc #000000 #000000 0 1;
#X obj 112 110 bng 35 250 50 0 empty empty empty 0 -10 0 12 #ffe3c6 #000000 #000000;
#X obj 80 244 float;
#X obj 131 244 float;
#X obj 181 244 float;
#X obj 231 244 float;
#X obj 282 244 float;
#X obj 332 244 float;
#X obj 383 244 float;
#X obj 434 244 float;
#X msg 434 274 \; 7-multiple_play \$1;
#X msg 383 314 \; 6-multiple_play \$1;
#X msg 332 354 \; 5-multiple_play \$1;
#X msg 282 394 \; 4-multiple_play \$1;
#X msg 231 434 \; 3-multiple_play \$1;
#X msg 181 474 \; 2-multiple_play \$1;
#X msg 131 514 \; 1-multiple_play \$1;
#X msg 80 554 \; 0-multiple_play \$1;
#X obj 112 148 t b b b b b b b b, f 51;
#X connect 0 0 9 1;
#X connect 1 0 10 1;
#X connect 2 0 11 1;
#X connect 3 0 12 1;
#X connect 4 0 13 1;
#X connect 5 0 14 1;
#X connect 6 0 15 1;
#X connect 7 0 16 1;
#X connect 8 0 25 0;
#X connect 9 0 24 0;
#X connect 10 0 23 0;
#X connect 11 0 22 0;
#X connect 12 0 21 0;
#X connect 13 0 20 0;
#X connect 14 0 19 0;
#X connect 15 0 18 0;
#X connect 16 0 17 0;
#X connect 25 0 9 0;
#X connect 25 1 10 0;
#X connect 25 2 11 0;
#X connect 25 3 12 0;
#X connect 25 4 13 0;
#X connect 25 5 14 0;
#X connect 25 6 15 0;
#X connect 25 7 16 0;
#X coords 0 -1 1 1 410 120 2 100 100;
