#N canvas 4 44 1920 997 12;
#X obj 638 116 openpanel;
#X symbolatom 638 140 50 0 0 0 - - - 0;
#X obj 638 247 soundfiler;
#X floatatom 638 278 20 0 0 0 - - - 0;
#X obj 638 301 / 44100;
#X floatatom 638 325 20 0 0 0 - - - 0;
#X obj 638 90 bng 15 250 50 0 empty \$0-load_sample empty 17 7 0 10 #fcfcfc #000000 #000000;
#X obj 1275 560 hsl 128 15 0 1 0 0 empty empty empty -2 -8 0 10 #fcfcfc #000000 #000000 0 1;
#X obj 1272 677 *~;
#X obj 728 967 *~;
#X obj 728 896 phasor~;
#X floatatom 728 700 10 0 0 1 Frecuencia\ del\ phasor - - 0;
#X obj 728 570 bng 15 250 50 0 empty empty empty 17 7 0 10 #fcfcfc #000000 #000000;
#X obj 728 671 *, f 5;
#X floatatom 728 522 5 0 0 1 Rate - - 12;
#X obj 571 915 snapshot~;
#X obj 571 891 metro 11;
#X obj 571 870 tgl 15 0 empty empty empty 17 7 0 10 #fcfcfc #000000 #000000 0 1;
#X obj 1272 604 line~;
#X obj 958 1068 bng 15 250 50 0 empty empty empty 17 7 0 10 #fcfcfc #000000 #000000;
#X obj 958 915 *~ 10000;
#X obj 958 1137 spigot;
#X obj 997 1073 tgl 30 0 empty \$0-loop Loop 33 14 0 14 #ffc7c6 #000000 #000000 0 1;
#X msg 1272 580 \$1 200;
#X obj 728 623 expr 1/$f1;
#X obj 728 592 f;
#X floatatom 728 647 10 0 0 0 - - - 0;
#X msg 958 1163 0;
#X obj 997 1108 expr ($f1 * -1) + 1;
#X obj 728 545 t b f;
#X obj 728 723 t f f;
#X obj 958 940 threshold~ 9997 0 9997 0;
#X floatatom 958 790 5 0 0 0 - - - 0;
#X obj 958 895 bng 15 250 50 0 empty empty empty 17 7 0 10 #fcfcfc #000000 #000000;
#X obj 958 812 threshold~ 0 0 0 0;
#X obj 978 861 threshold~ 0 0 0 0;
#X obj 978 836 * -1;
#X obj 978 895 bng 15 250 50 0 empty empty empty 17 7 0 10 #fcfcfc #000000 #000000;
#X msg 1189 931 0;
#X obj 1157 910 t b b;
#X obj 1157 953 del 1;
#X msg 1157 977 1;
#X obj 1157 1001 f;
#X obj 958 742 spigot;
#X obj 958 1020 spigot;
#X obj -90 118 cnv 19 126 76 empty empty empty 20 12 0 12 #e0e0e0 #404040 0;
#N canvas 0 50 450 250 (subpatch) 0;
#X array \$0-samplefile-array 4.6377e+06 float 2;
#X coords 0 1 4.6377e+06 -1 144 40 1 2 2;
#X restore 106 183 graph;
#X obj 106 242 tgl 10 0 \$0-play \$0-play_status play/pause 14 4 0 8 #c4fcc4 #000000 #000000 0 1;
#X obj 119 289 hsl 116 11 -1 1 0 0 \$0-rate \$0-rate_status rate_(-1:1) 2 6 0 8 #fcfcc4 #000000 #000000 0 1;
#X obj 109 223 hsl 139 12 0 1 0 0 empty \$0-sample_follow empty -2 -8 0 10 #fcfcfc #000000 #000000 0 1;
#X symbolatom 106 148 20 0 0 2 Filename: \$0-filename - 0;
#X obj 237 289 bng 11 250 50 0 \$0-rate_1 empty empty 17 7 0 10 #fcfcfc #000000 #000000;
#X obj 105 289 bng 11 250 50 0 \$0-rate_negative_1 empty empty 17 7 0 10 #fcfcfc #000000 #000000;
#X obj 212 169 bng 10 250 50 0 \$0-normalize \$0-normalize_status norm. 12 5 0 10 #fcfcfc #000000 #000000;
#X obj 119 304 hsl 116 11 -1 1 0 0 \$0-panning \$0-panning_status panning_(-1:1) 2 6 0 8 #c4fcfc #000000 #000000 0 1;
#X obj 119 274 hsl 125 12 0 1 0 0 \$0-volume \$0-volume_status volume_(0:1) 2 6 0 8 #fce0c4 #000000 #000000 0 1;
#X obj 237 304 bng 11 250 50 0 \$0-center_panning empty c 12 5 0 10 #fcfcfc #000000 #000000;
#X obj 106 252 tgl 10 0 \$0-loop \$0-loop_status loop 14 4 0 8 #fcfcfc #000000 #000000 0 1;
#X floatatom 216 242 4 0 0 3 sec. \$0-sample_duration - 0;
#X obj 171 242 bng 10 250 50 0 \$0-stop \$0-stop_status stop 12 5 0 8 #c4fcc4 #000000 #000000;
#X obj 171 251 bng 10 250 50 0 \$0-replay \$0-replay_status replay 12 5 0 8 #c4fcc4 #000000 #000000;
#X obj 208 129 bng 15 250 50 0 \$0-reset \$0-reset_status reset 17 7 0 10 #fcfcfc #000000 #000000;
#X msg 638 223 read -resize \$1 \$2-samplefile-array;
#X obj 1272 710 tabread4~ \$0-samplefile-array;
#X obj 728 1057 tabread4~ \$0-samplefile-array;
#X obj 788 296 s \$0-sample_size;
#X obj 788 343 s \$0-sample_duration;
#X obj 1290 644 r \$0-sample_size;
#X obj 760 573 r \$0-sample_duration;
#X obj 571 939 s \$0-sample_follow;
#X obj 746 942 r \$0-sample_size;
#X obj 728 1366 *~;
#X obj 928 1265 vsl 15 50 0 1 0 0 empty empty Volume 20 30 0 14 #fcfcc4 #000000 #000000 0 1;
#X msg 928 1323 \$1 50;
#X obj 928 1347 line~;
#X obj 638 503 r \$0-rate;
#X obj 968 1244 r \$0-volume;
#X obj 958 766 expr if($f1 >= 0 \, 1 \, -1);
#X obj 675 758 tgl 30 0 empty \$0-play PLAY 1 14 0 12 #c6ffc7 #000000 #000000 0 1;
#X msg 958 1191 \$1 10;
#X obj 958 1215 line;
#X obj 728 788 *, f 10;
#X floatatom 728 812 10 0 0 0 - - - 0;
#N canvas 953 0 958 988 panning 0;
#X obj 205 224 *~;
#X obj 293 224 *~;
#X obj 122 123 vsl 15 50 0 1 0 0 empty empty empty 0 -9 0 10 #fcfcc4 #000000 #000000 0 1;
#X msg 122 181 \$1 50;
#X obj 122 205 line~;
#X obj 205 285 clip~ -1 1;
#X obj 205 261 hip~ 100;
#X obj 382 123 vsl 15 50 0 1 0 0 empty empty empty 0 -9 0 10 #fcfcc4 #000000 #000000 0 1;
#X msg 382 181 \$1 50;
#X obj 382 205 line~;
#X obj 293 285 clip~ -1 1;
#X obj 293 261 hip~ 100;
#X obj 224 -11 hsl 100 15 0 3.1416 0 0 empty pan.cos empty -2 -8 0 10 #c4fcfc #000000 #000000 0 1;
#X obj 221 9 cos;
#X obj 221 54 + 1;
#X obj 221 78 / 2;
#X obj 339 28 * -1;
#X obj 339 52 + 1;
#X obj 339 76 / 2;
#X obj 221 102 sqrt;
#X obj 339 102 sqrt;
#X obj 205 -51 inlet~;
#X obj 205 200 *~ 1, f 13;
#X obj 305 -51 inlet, f 6;
#X obj 205 309 outlet~;
#X obj 293 309 outlet~;
#X connect 0 0 6 0;
#X connect 1 0 11 0;
#X connect 2 0 3 0;
#X connect 3 0 4 0;
#X connect 4 0 0 1;
#X connect 5 0 24 0;
#X connect 6 0 5 0;
#X connect 7 0 8 0;
#X connect 8 0 9 0;
#X connect 9 0 1 1;
#X connect 10 0 25 0;
#X connect 11 0 10 0;
#X connect 12 0 13 0;
#X connect 13 0 14 0;
#X connect 13 0 16 0;
#X connect 14 0 15 0;
#X connect 15 0 19 0;
#X connect 16 0 17 0;
#X connect 17 0 18 0;
#X connect 18 0 20 0;
#X connect 19 0 2 0;
#X connect 20 0 7 0;
#X connect 21 0 22 0;
#X connect 22 0 0 0;
#X connect 22 0 1 0;
#X connect 23 0 12 0;
#X restore 728 1527 pd panning;
#X obj 798 1410 hsl 100 15 -1 1 0 0 empty \$0-panning Paneo -3 -9 0 14 #c6feff #000000 #000000 0 1;
#X obj 571 843 loadbang;
#X obj 728 747 t b f, f 10;
#X obj 795 1435 + 1;
#X obj 795 1465 / 2;
#X obj 1272 812 cyclone/edge~;
#X obj 774 843 r \$0-restart_phasor;
#X obj 546 991 r \$0-restart_tabread4;
#X obj 546 1039 sig~;
#X obj 1018 1182 s \$0-play_status;
#X obj 100 593 bng 19 250 50 0 empty empty empty 0 -10 0 12 #fcfcfc #000000 #000000;
#X floatatom 100 641 5 0 0 0 - - - 0;
#X obj 106 104 bng 20 250 50 0 \$0-load_sample empty Load\ Sample 25 10 0 12 #c6ffc7 #000000 #000000;
#X obj 728 1609 throw~ sample_out-L;
#X obj 795 1579 throw~ sample_out-R;
#X obj 100 47 loadbang;
#X obj 728 843 sig~;
#X obj 100 71 s \$0-reset;
#X obj 100 617 \$0;
#X text 100 572 Obtiene el identificador de la instancia (\$0).;
#X text 639 472 Flujo de reproducción del sample.;
#X text 639 62 Flujo de carga del sample.;
#X text 1269 472 Por implementar:;
#X text 1269 532 Scratch de sample.;
#X obj 867 182 s \$0-filename;
#X text 1269 788 Explorar este objeto como posible reemplazo de [threshold~].;
#N canvas 1173 0 738 988 buttons_configuration 0;
#X msg -259 331 \; \$1-samplefile-array normalize;
#X obj -259 303 \$0;
#X obj -259 276 r \$0-normalize;
#X obj 22 39 r \$0-stop, f 16;
#X obj 76 225 s \$0-restart_tabread_4;
#X obj 22 255 s \$0-restart_phasor;
#X msg 131 94 0;
#X obj -259 39 r \$0-reset;
#X obj -259 63 \$0;
#X obj 22 64 t b b b, f 16;
#X obj 166 552 s \$0-restart_tabread_4;
#X obj 118 586 s \$0-restart_phasor;
#X obj 22 340 r \$0-replay, f 16;
#X obj -259 428 \$0;
#X obj -259 404 r \$0-center_panning;
#X msg -259 452 \; \$1-panning_status 0;
#X obj -259 518 \$0;
#X obj -259 494 r \$0-rate_1;
#X msg -259 542 \; \$1-rate_status 1;
#X obj -259 628 \$0;
#X obj -259 604 r \$0-rate_negative_1;
#X msg -259 652 \; \$1-rate_status -1;
#X obj 118 552 f;
#X obj 70 621 s \$0-play_status;
#X msg 70 412 1;
#X obj 22 758 \$0;
#X msg 22 782 \; \$1-rate bang \;;
#X obj 22 734 r \$0-init_sample_player;
#X obj -259 724 r \$1-normalize_instance;
#X obj -259 804 r \$1-reset_instance;
#X obj -259 834 s \$0-reset_status, f 23;
#X obj -259 754 s \$0-normalize_status, f 23;
#X obj 136 529 expr if($f1 >= 0 \, 0 \, 1);
#X obj 22 370 t b b b b b, f 28;
#X obj 215 505 s \$0-replay_spigot;
#X obj 22 654 s \$0-replay_spigot;
#X obj 22 611 f;
#X msg 215 474 0;
#X obj 22 196 f;
#X obj 40 173 expr if($f1 >= 0 \, 0 \, 1);
#X obj 40 445 r \$0-loop;
#X obj 40 475 expr ($f1 * -1) + 1;
#X obj 136 505 r \$0-rate;
#X obj 131 125 s \$0-play_status;
#X obj 40 149 r \$0-rate;
#X obj 384 399 r \$0-sample_size;
#X obj 184 399 r \$0-rate;
#X obj 184 423 expr if($f1 >= 0 \, 1 \, $f2 - 1);
#X obj 166 447 f;
#X obj 22 586 del 5;
#X msg -259 87 \; \$1-loop_status 0 \; \$1-stop bang \; \$1-volume_status 0.5 \; \$1-rate_status 1 \; \$1-panning_status 0 \; \$1-pitch_status 0 \; \$1-ring_modulation_status 0 \; \$1-delay_time_status 0 \; \$1-delay_feedback_status 0 \; \$1-reverb_wet_status 0 \; \$1-reverb_roomsize_status 0.5;
#X connect 1 0 0 0;
#X connect 2 0 1 0;
#X connect 3 0 9 0;
#X connect 6 0 43 0;
#X connect 7 0 8 0;
#X connect 8 0 50 0;
#X connect 9 0 38 0;
#X connect 9 1 4 0;
#X connect 9 2 6 0;
#X connect 12 0 33 0;
#X connect 13 0 15 0;
#X connect 14 0 13 0;
#X connect 16 0 18 0;
#X connect 17 0 16 0;
#X connect 19 0 21 0;
#X connect 20 0 19 0;
#X connect 22 0 11 0;
#X connect 24 0 23 0;
#X connect 25 0 26 0;
#X connect 27 0 25 0;
#X connect 28 0 31 0;
#X connect 29 0 30 0;
#X connect 32 0 22 1;
#X connect 33 0 49 0;
#X connect 33 1 24 0;
#X connect 33 2 22 0;
#X connect 33 3 48 0;
#X connect 33 4 37 0;
#X connect 36 0 35 0;
#X connect 37 0 34 0;
#X connect 38 0 5 0;
#X connect 39 0 38 1;
#X connect 40 0 41 0;
#X connect 41 0 36 1;
#X connect 42 0 32 0;
#X connect 44 0 39 0;
#X connect 45 0 47 1;
#X connect 46 0 47 0;
#X connect 47 0 48 1;
#X connect 48 0 10 0;
#X connect 49 0 36 0;
#X restore 100 492 pd buttons_configuration;
#X text 100 472 Configuración de los botones.;
#X obj 638 348 bng 19 250 50 0 empty empty empty 0 -10 0 12 #fcfcfc #000000 #000000;
#X obj 638 376 s \$0-init_sample_player;
#X obj 100 733 bng 19 250 50 0 empty empty empty 0 -10 0 12 #fcfcfc #000000 #000000;
#X floatatom 100 781 5 0 0 0 - - - 0;
#X obj 100 757 \$1;
#X obj 462 144 r samplefile-name-\$1;
#X obj 638 193 pack s \$0;
#X obj 638 163 symbol, f 8;
#X text 100 712 Obtiene el argumento de la instancia (\$1).;
#X obj 103 1298 else/pitch.shift~, f 19;
#X text 99 1223 PROCESSING;
#X msg 164 1549 wet \$1;
#X msg 225 1573 size \$1;
#X obj 103 1464 else/fbdelay~, f 19;
#X obj 103 1592 else/mono.rev~;
#X obj 103 1355 else/rm~, f 19;
#X obj 119 336 hsl 116 11 -240 240 0 0 \$0-pitch \$0-pitch_status pitchshifter_(-24:24) 2 6 0 8 #e0c4fc #000000 #000000 0 1;
#X text 102 319 Processing:;
#X obj 118 404 hsl 116 11 0 1 0 0 \$0-reverb_wet \$0-reverb_wet_status reverb_wet_(0:1) 2 6 0 8 #dcdcdc #000000 #000000 0 1;
#X obj 118 422 hsl 116 11 0.5 1 0 0 \$0-reverb_roomsize \$0-reverb_roomsize_status reverb_roomsize_(0.5:1) 2 6 0 8 #dcdcdc #000000 #000000 0 1;
#X obj 118 370 hsl 116 11 50 1500 0 0 \$0-delay_time \$0-delay_time_status delay_time_(50:1500)ms 2 6 0 8 #00f8fc #000000 #000000 0 1;
#X obj 118 388 hsl 116 11 0 10000 0 0 \$0-delay_feedback \$0-delay_feedback_status delay_feedback_(0:10000)ms 2 6 0 8 #00f8fc #000000 #000000 0 1;
#X obj 118 353 hsl 116 11 0 4000 0 0 \$0-ring_modulation \$0-ring_modulation_status ringmodulator_freq_(0:4000)Hz 2 6 0 8 #fcc4c4 #000000 #000000 0 1;
#X obj 103 1248 r~ \$0-sample_dry_out;
#X obj 103 1614 s~ \$0-sample_processed_out;
#X obj 728 1081 s~ \$0-sample_dry_out;
#X obj 728 1331 r~ \$0-sample_processed_out;
#X obj 168 1272 r \$0-pitch;
#X obj 233 1332 r \$0-ring_modulation;
#X obj 168 1390 r \$0-delay_time;
#X obj 233 1414 r \$0-delay_feedback;
#X obj 164 1505 r \$0-reverb_wet;
#X obj 225 1529 r \$0-reverb_roomsize;
#X obj 772 158 split_filename;
#X obj 462 168 symbol;
#X obj 462 192 s \$0-filename;
#X msg 546 1015 1;
#X obj 1146 1118 r \$0-replay_spigot;
#X floatatom 1153 1155 5 0 0 0 - - - 0;
#X obj -56 223 r \$1-multiple_play;
#X obj 795 1494 * 3.14159;
#X obj 168 1414 ramp~ 500;
#X obj 233 1438 ramp~ 500;
#X obj 164 1527 ramp 500;
#X obj 225 1551 ramp 500;
#X connect 0 0 1 0;
#X connect 1 0 119 0;
#X connect 1 0 145 0;
#X connect 2 0 3 0;
#X connect 3 0 4 0;
#X connect 3 0 65 0;
#X connect 4 0 5 0;
#X connect 5 0 66 0;
#X connect 5 0 112 0;
#X connect 6 0 0 0;
#X connect 7 0 23 0;
#X connect 8 0 63 0;
#X connect 9 0 64 0;
#X connect 10 0 9 0;
#X connect 10 0 15 0;
#X connect 10 0 20 0;
#X connect 11 0 30 0;
#X connect 12 0 25 0;
#X connect 13 0 11 0;
#X connect 14 0 29 0;
#X connect 15 0 69 0;
#X connect 16 0 15 0;
#X connect 17 0 16 0;
#X connect 18 0 8 0;
#X connect 19 0 21 0;
#X connect 20 0 31 0;
#X connect 21 0 27 0;
#X connect 22 0 28 0;
#X connect 23 0 18 0;
#X connect 24 0 26 0;
#X connect 25 0 24 0;
#X connect 26 0 13 0;
#X connect 27 0 79 0;
#X connect 27 0 93 0;
#X connect 28 0 21 1;
#X connect 28 0 43 1;
#X connect 29 0 12 0;
#X connect 29 1 13 1;
#X connect 30 0 86 0;
#X connect 30 1 43 0;
#X connect 31 0 44 0;
#X connect 32 0 34 0;
#X connect 32 0 36 0;
#X connect 33 0 39 0;
#X connect 34 0 33 0;
#X connect 35 0 37 0;
#X connect 36 0 35 0;
#X connect 37 0 39 0;
#X connect 38 0 42 0;
#X connect 39 0 40 0;
#X connect 39 1 38 0;
#X connect 40 0 41 0;
#X connect 41 0 42 0;
#X connect 42 0 44 1;
#X connect 43 0 77 0;
#X connect 44 0 19 0;
#X connect 62 0 2 0;
#X connect 64 0 137 0;
#X connect 67 0 8 1;
#X connect 68 0 25 1;
#X connect 70 0 9 1;
#X connect 71 0 83 0;
#X connect 72 0 73 0;
#X connect 73 0 74 0;
#X connect 74 0 71 1;
#X connect 75 0 14 0;
#X connect 76 0 72 0;
#X connect 77 0 32 0;
#X connect 78 0 81 0;
#X connect 79 0 80 0;
#X connect 80 0 10 0;
#X connect 81 0 82 0;
#X connect 82 0 100 0;
#X connect 83 0 97 0;
#X connect 83 1 98 0;
#X connect 84 0 87 0;
#X connect 85 0 17 0;
#X connect 86 0 81 0;
#X connect 86 1 81 1;
#X connect 87 0 88 0;
#X connect 88 0 152 0;
#X connect 90 0 10 1;
#X connect 91 0 148 0;
#X connect 92 0 64 0;
#X connect 94 0 102 0;
#X connect 99 0 101 0;
#X connect 100 0 10 0;
#X connect 102 0 95 0;
#X connect 112 0 113 0;
#X connect 114 0 116 0;
#X connect 116 0 115 0;
#X connect 117 0 119 0;
#X connect 117 0 146 0;
#X connect 118 0 62 0;
#X connect 119 0 118 0;
#X connect 121 0 127 0;
#X connect 123 0 126 0;
#X connect 124 0 126 0;
#X connect 125 0 126 0;
#X connect 126 0 136 0;
#X connect 127 0 125 0;
#X connect 135 0 121 0;
#X connect 138 0 71 0;
#X connect 139 0 121 1;
#X connect 140 0 127 1;
#X connect 141 0 153 0;
#X connect 142 0 154 0;
#X connect 143 0 155 0;
#X connect 144 0 156 0;
#X connect 145 1 108 0;
#X connect 146 0 147 0;
#X connect 148 0 92 0;
#X connect 149 0 21 1;
#X connect 149 0 150 0;
#X connect 151 0 47 0;
#X connect 152 0 83 1;
#X connect 153 0 125 1;
#X connect 154 0 125 2;
#X connect 155 0 123 0;
#X connect 156 0 124 0;
#X coords 0 -1 1 1 160 340 2 100 100;
