#N canvas 611 113 568 576 10;
#X obj 46 116 list fromsymbol;
#X obj 46 413 list split;
#X obj 108 453 list tosymbol;
#X obj 46 136 t a a;
#X obj 73 256 list store;
#X obj 73 176 until;
#X obj 73 196 f;
#X obj 103 196 + 1;
#X msg 73 236 get \$1 1;
#X obj 116 177 0;
#X obj 73 156 t b b a;
#X obj 73 216 t f f;
#X obj 73 333 sel 1;
#X obj 73 353 f;
#X obj 103 393 f;
#X obj 218 297 list fromsymbol;
#X obj 73 313 ==;
#X obj 218 216 symbol \$1;
#X obj 228 196 loadbang;
#X obj 108 473 outlet;
#X obj 166 36 inlet;
#X obj 218 236 list fromsymbol;
#X obj 218 257 route bang;
#X obj 218 277 symbol /;
#X obj 46 513 outlet;
#X obj 46 493 list tosymbol;
#X obj 253 76 route symbol;
#X obj 166 56 route separator;
#X obj 74 433 list split 1;
#X obj 322 96 symbol;
#X msg 322 116 no method for '\$1';
#X obj 322 136 print ERROR;
#X obj 166 136 route float symbol;
#X obj 166 176 list fromsymbol;
#X msg 166 156 symbol \$1;
#X connect 0 0 3 0;
#X connect 1 0 25 0;
#X connect 1 1 28 0;
#X connect 2 0 19 0;
#X connect 3 0 1 0;
#X connect 3 1 10 0;
#X connect 4 0 16 0;
#X connect 4 1 5 1;
#X connect 4 1 14 0;
#X connect 5 0 6 0;
#X connect 6 0 7 0;
#X connect 6 0 11 0;
#X connect 7 0 6 1;
#X connect 8 0 4 0;
#X connect 9 0 6 1;
#X connect 10 0 5 0;
#X connect 10 1 9 0;
#X connect 10 2 4 1;
#X connect 11 0 8 0;
#X connect 11 1 13 1;
#X connect 12 0 13 0;
#X connect 13 0 14 1;
#X connect 14 0 1 1;
#X connect 15 0 16 1;
#X connect 16 0 12 0;
#X connect 17 0 21 0;
#X connect 18 0 17 0;
#X connect 20 0 27 0;
#X connect 21 0 22 0;
#X connect 22 0 23 0;
#X connect 22 1 16 1;
#X connect 23 0 15 0;
#X connect 25 0 24 0;
#X connect 26 0 0 0;
#X connect 26 1 29 0;
#X connect 27 0 32 0;
#X connect 27 1 26 0;
#X connect 28 1 2 0;
#X connect 29 0 30 0;
#X connect 30 0 31 0;
#X connect 32 0 34 0;
#X connect 32 1 17 0;
#X connect 33 0 16 1;
#X connect 34 0 33 0;
